<svg width="21" height="20" viewBox="0 0 21 20" fill="none" xmlns="http://www.w3.org/2000/svg">
<path fill-rule="evenodd" clip-rule="evenodd" d="M4.49645 17.0149H16.5648C17.5206 16.9649 18.2556 16.1508 18.2065 15.1949C18.1956 15.0016 18.154 14.8108 18.0806 14.6324L12.0165 4.01909C11.5531 3.18159 10.499 2.87825 9.66145 3.34242C9.37645 3.49909 9.14145 3.73409 8.98395 4.01909L2.91979 14.6324C2.55979 15.5191 2.98645 16.5291 3.87229 16.8899C4.05229 16.9624 4.24229 17.0041 4.43562 17.0149" fill="#F14C53"/>
<path d="M4.49645 17.0149H16.5648C17.5206 16.9649 18.2556 16.1508 18.2065 15.1949C18.1956 15.0016 18.154 14.8108 18.0806 14.6324L12.0165 4.01909C11.5531 3.18159 10.499 2.87825 9.66145 3.34242C9.37645 3.49909 9.14145 3.73409 8.98395 4.01909L2.91979 14.6324C2.55979 15.5191 2.98645 16.5291 3.87229 16.8899C4.05229 16.9624 4.24229 17.0041 4.43562 17.0149" stroke="#F14C53" stroke-width="1.5" stroke-linecap="round" stroke-linejoin="round"/>
<path d="M9.74023 13.681C9.74023 13.2686 10.0762 12.928 10.4902 12.928C10.9042 12.928 11.2402 13.2577 11.2402 13.67V13.681C11.2402 14.0933 10.9042 14.428 10.4902 14.428C10.0762 14.428 9.74023 14.0933 9.74023 13.681Z" fill="white"/>
<path fill-rule="evenodd" clip-rule="evenodd" d="M10.4919 11.1634V8.58009V11.1634Z" fill="white"/>
<path d="M10.4919 11.1634V8.58009" stroke="white" stroke-width="1.5" stroke-linecap="round" stroke-linejoin="round"/>
</svg>
