<svg width="20" height="20" viewBox="0 0 20 20" fill="none" xmlns="http://www.w3.org/2000/svg">
<path d="M4 4C4 2.89543 4.89543 2 6 2H16V18H6C4.89543 18 4 17.1046 4 16V4Z" fill="#26A57A"/>
<g style="mix-blend-mode:soft-light" opacity="0.5">
<path d="M4 4C4 2.89543 4.89543 2 6 2H7V18H6C4.89543 18 4 17.1046 4 16V4Z" fill="black"/>
</g>
<path d="M5.5 16C5.5 15.4477 5.94772 15 6.5 15H15V17H6.5C5.94772 17 5.5 16.5523 5.5 16Z" fill="white"/>
<g style="mix-blend-mode:soft-light" opacity="0.5">
<rect x="15" y="15" width="1" height="3" fill="black"/>
</g>
<path d="M8 8.5C8 8.22386 8.22386 8 8.5 8H12.5C12.7761 8 13 8.22386 13 8.5C13 8.77614 12.7761 9 12.5 9H8.5C8.22386 9 8 8.77614 8 8.5Z" fill="white"/>
<path d="M10.5 11C10.2239 11 10 10.7761 10 10.5L10 6.5C10 6.22386 10.2239 6 10.5 6C10.7761 6 11 6.22386 11 6.5L11 10.5C11 10.7761 10.7761 11 10.5 11Z" fill="white"/>
</svg>
